<svg viewBox="0 0 32 32" fill="none" xmlns="http://www.w3.org/2000/svg">
    <!-- Background -->
    <rect width="32" height="32" rx="5" fill="#B8E100"/>
    
    <!-- Double P logo -->
    <g transform="translate(5, 4)">
        <!-- Back P (outline style) -->
        <path d="M4 6 L4 22 L7 22 L7 14 L12 14 C15.5 14 18 11.5 18 8 C18 4.5 15.5 2 12 2 L4 2 L4 5 L12 5 C13.8 5 15 6.2 15 8 C15 9.8 13.8 11 12 11 L7 11 L7 6 Z" fill="#0F1519"/>
        
        <!-- Front P (solid) -->
        <path d="M8 10 L8 24 L11 24 L11 18 L15 18 C18.5 18 21 15.5 21 12 C21 8.5 18.5 6 15 6 L8 6 L8 10 L15 10 C16.8 10 18 11.2 18 13 C18 14.8 16.8 16 15 16 L11 16 L11 10 Z" fill="#0F1519"/>
    </g>
</svg>
